<?xml version="1.0" encoding="UTF-8" standalone="no"?>
<svg
   version="1.1"
   id="Icons"
   x="0px"
   y="0px"
   viewBox="0 0 1024 1024"
   xml:space="preserve"
   sodipodi:docname="find-text.svg"
   width="1024"
   height="1024"
   inkscape:version="1.2.1 (9c6d41e410, 2022-07-14, custom)"
   xmlns:inkscape="http://www.inkscape.org/namespaces/inkscape"
   xmlns:sodipodi="http://sodipodi.sourceforge.net/DTD/sodipodi-0.dtd"
   xmlns="http://www.w3.org/2000/svg"
   xmlns:svg="http://www.w3.org/2000/svg"><defs
   id="defs85" /><sodipodi:namedview
   id="namedview83"
   pagecolor="#505050"
   bordercolor="#eeeeee"
   borderopacity="1"
   inkscape:showpageshadow="0"
   inkscape:pageopacity="0"
   inkscape:pagecheckerboard="0"
   inkscape:deskcolor="#505050"
   showgrid="false"
   inkscape:zoom="7.375"
   inkscape:cx="16"
   inkscape:cy="16.067797"
   inkscape:window-width="1128"
   inkscape:window-height="697"
   inkscape:window-x="0"
   inkscape:window-y="0"
   inkscape:window-maximized="1"
   inkscape:current-layer="Icons" />
<g
   id="g80"
   transform="scale(32)">
	<path
   d="M 27,22.1 V 9.9 C 28.7,9.5 30,7.9 30,6 30,3.8 28.2,2 26,2 24.1,2 22.6,3.3 22.1,5 H 9.9 C 9.4,3.3 7.9,2 6,2 3.8,2 2,3.8 2,6 2,7.9 3.3,9.4 5,9.9 v 12.3 c -1.7,0.4 -3,2 -3,3.9 0,2.2 1.8,4 4,4 1.9,0 3.4,-1.3 3.9,-3 h 12.3 c 0.4,1.7 2,3 3.9,3 2.2,0 4,-1.8 4,-4 -0.1,-2 -1.4,-3.5 -3.1,-4 z M 22.1,25 H 9.9 C 9.5,23.6 8.4,22.5 7,22.1 V 9.9 C 8.4,9.5 9.5,8.4 9.9,7 h 12.3 c 0.4,1.4 1.5,2.5 2.9,2.9 v 12.3 c -1.5,0.3 -2.6,1.4 -3,2.8 z"
   id="path76" />
	<path
   d="M 21,10 H 11 c -0.6,0 -1,0.4 -1,1 v 2 c 0,0.6 0.4,1 1,1 0.6,0 1,-0.4 1,-1 v -1 h 3 v 8 h -1 c -0.6,0 -1,0.4 -1,1 0,0.6 0.4,1 1,1 h 4 c 0.6,0 1,-0.4 1,-1 0,-0.6 -0.4,-1 -1,-1 h -1 v -8 h 3 v 1 c 0,0.6 0.4,1 1,1 0.6,0 1,-0.4 1,-1 v -2 c 0,-0.6 -0.4,-1 -1,-1 z"
   id="path78" />
</g>
</svg>
