<?xml version='1.0' encoding='iso-8859-1'?>
<!DOCTYPE svg PUBLIC '-//W3C//DTD SVG 1.1//EN' 'http://www.w3.org/Graphics/SVG/1.1/DTD/svg11.dtd'>
<svg version="1.1" xmlns="http://www.w3.org/2000/svg" viewBox="0 0 297 297" xmlns:xlink="http://www.w3.org/1999/xlink" enable-background="new 0 0 297 297">
  <path d="m163.922,31.916c-33.472,0-64.08,12.478-87.433,33.018l-2.065-2.089v-27.843c0-2.214-0.856-4.342-2.388-5.94l-25.348-26.422c-2.423-2.526-6.141-3.326-9.392-2.021-3.25,1.307-5.379,4.458-5.379,7.961v22.8h-22.8c-3.438,0-6.544,2.052-7.893,5.215-1.347,3.162-0.678,6.824 1.701,9.305l25.349,26.422c1.619,1.687 3.854,2.64 6.191,2.64h27.828l2.086,2.084c-20.53,23.35-33,53.95-33,87.413-3.55271e-15,73.083 59.459,132.541 132.543,132.541 73.083,0 132.542-59.458 132.542-132.543s-59.459-132.541-132.542-132.541zm-106.657,25.885h-19.141l-8.885-9.262h11.258c4.738,0 8.58-3.841 8.58-8.58v-10.042l8.188,8.535v19.349zm106.657,222.039c-63.622,0-115.383-51.761-115.383-115.383 0-28.734 10.56-55.047 28-75.266l12.955,12.942c-14.157,16.879-22.696,38.622-22.696,62.324 0,53.555 43.569,97.125 97.124,97.125s97.124-43.57 97.124-97.125-43.569-97.124-97.124-97.124c-23.782,0-45.59,8.597-62.493,22.839l-12.865-13.019c20.232-17.487 46.581-28.078 75.358-28.078 63.622,0 115.382,51.76 115.382,115.382s-51.76,115.383-115.382,115.383zm-49.23-152.535c-7.825,10.343-12.477,23.213-12.477,37.153 0,34.026 27.681,61.707 61.707,61.707 34.025,0 61.706-27.681 61.706-61.707 0-34.025-27.681-61.706-61.706-61.706-14.089,0-27.081,4.756-37.48,12.733l-12.907-13.062c13.763-11.2 31.301-17.93 50.387-17.93 44.093,0 79.965,35.872 79.965,79.965s-35.872,79.966-79.965,79.966-79.965-35.873-79.965-79.966c0-18.973 6.654-36.413 17.735-50.139l13,12.986zm25.623,25.597c-1.716,3.49-2.683,7.411-2.683,11.556 0,14.496 11.793,26.289 26.289,26.289 14.495,0 26.289-11.793 26.289-26.289 0-14.495-11.793-26.289-26.289-26.289-4.372,0-8.494,1.079-12.125,2.974l-13.169-13.326c7.191-4.979 15.905-7.906 25.294-7.906 24.563,0 44.546,19.984 44.546,44.546 0,24.563-19.984,44.547-44.546,44.547-24.563,0-44.547-19.984-44.547-44.547 0-9.205 2.807-17.766 7.609-24.874l13.332,13.319zm23.607,2.427c5.034,0 9.129,4.095 9.129,9.129s-4.095,9.13-9.129,9.13c-5.034,0-9.13-4.096-9.13-9.13s4.096-9.129 9.13-9.129z"/>
</svg>
